<svg viewBox="0 0 57 43" fill="none" xmlns="http://www.w3.org/2000/svg">
  <style>
    svg { fill: black; }
    @media (prefers-color-scheme: dark) {
      svg { fill: white; }
    }
  </style>
<path d="M28.8813 0C11.0638 0 0.5 21.1275 0.5 21.1275C0.5 21.1275 11.0638 42.255 28.8813 42.255C46.2763 42.255 56.84 21.1275 56.84 21.1275C56.84 21.1275 46.2763 0 28.8813 0ZM28.67 7.0425C36.4872 7.0425 42.755 13.3807 42.755 21.1275C42.755 28.9447 36.4872 35.2125 28.67 35.2125C20.9232 35.2125 14.585 28.9447 14.585 21.1275C14.585 13.3807 20.9232 7.0425 28.67 7.0425ZM28.67 14.085C24.7966 14.085 21.6275 17.2541 21.6275 21.1275C21.6275 25.0009 24.7966 28.17 28.67 28.17C32.5434 28.17 35.7125 25.0009 35.7125 21.1275C35.7125 20.4233 35.4308 19.7894 35.29 19.1556C34.7266 20.2824 33.5998 21.1275 32.1913 21.1275C30.2194 21.1275 28.67 19.5782 28.67 17.6063C28.67 16.1978 29.5151 15.0709 30.6419 14.5075C30.0081 14.2963 29.3743 14.085 28.67 14.085Z"/>
</svg>
